<svg viewBox="0 0 896 408" xmlns="http://www.w3.org/2000/svg" xmlns:inkspace="http://www.inkscape.org/namespaces/inkscape" xmlns:xlink="http://www.w3.org/1999/xlink">
  <defs id="defs_block">
    <filter height="1.504" id="filter_blur" inkspace:collect="always" width="1.1575" x="-0.07875" y="-0.252">
      <feGaussianBlur id="feGaussianBlur3780" inkspace:collect="always" stdDeviation="4.2" />
    </filter>
  </defs>
  <title>blockdiag</title>
  <desc>{
  colwidth = 32
  node_height = 72

  0-7: Type
  8-15: Code
  16-31: Checksum
  32-47: Identification
  48-63: Sequence Number
  64-95: Data[colheight = 2]
}
</desc>
  <path d="M 64 48 L 64 80" fill="none" stroke="rgb(0,0,0)" />
  <text fill="rgb(0,0,0)" font-family="sans-serif" font-size="11" font-style="normal" font-weight="normal" text-anchor="middle" textLength="7" x="64.5" y="42">0</text>
  <path d="M 88 64 L 88 80" fill="none" stroke="rgb(0,0,0)" />
  <path d="M 112 64 L 112 80" fill="none" stroke="rgb(0,0,0)" />
  <path d="M 136 64 L 136 80" fill="none" stroke="rgb(0,0,0)" />
  <path d="M 160 64 L 160 80" fill="none" stroke="rgb(0,0,0)" />
  <path d="M 184 64 L 184 80" fill="none" stroke="rgb(0,0,0)" />
  <path d="M 208 64 L 208 80" fill="none" stroke="rgb(0,0,0)" />
  <path d="M 232 64 L 232 80" fill="none" stroke="rgb(0,0,0)" />
  <path d="M 256 48 L 256 80" fill="none" stroke="rgb(0,0,0)" />
  <path d="M 280 64 L 280 80" fill="none" stroke="rgb(0,0,0)" />
  <path d="M 304 64 L 304 80" fill="none" stroke="rgb(0,0,0)" />
  <path d="M 328 64 L 328 80" fill="none" stroke="rgb(0,0,0)" />
  <path d="M 352 64 L 352 80" fill="none" stroke="rgb(0,0,0)" />
  <path d="M 376 64 L 376 80" fill="none" stroke="rgb(0,0,0)" />
  <path d="M 400 64 L 400 80" fill="none" stroke="rgb(0,0,0)" />
  <path d="M 424 64 L 424 80" fill="none" stroke="rgb(0,0,0)" />
  <path d="M 448 48 L 448 80" fill="none" stroke="rgb(0,0,0)" />
  <text fill="rgb(0,0,0)" font-family="sans-serif" font-size="11" font-style="normal" font-weight="normal" text-anchor="middle" textLength="15" x="448.5" y="42">16</text>
  <path d="M 472 64 L 472 80" fill="none" stroke="rgb(0,0,0)" />
  <path d="M 496 64 L 496 80" fill="none" stroke="rgb(0,0,0)" />
  <path d="M 520 64 L 520 80" fill="none" stroke="rgb(0,0,0)" />
  <path d="M 544 64 L 544 80" fill="none" stroke="rgb(0,0,0)" />
  <path d="M 568 64 L 568 80" fill="none" stroke="rgb(0,0,0)" />
  <path d="M 592 64 L 592 80" fill="none" stroke="rgb(0,0,0)" />
  <path d="M 616 64 L 616 80" fill="none" stroke="rgb(0,0,0)" />
  <path d="M 640 48 L 640 80" fill="none" stroke="rgb(0,0,0)" />
  <path d="M 664 64 L 664 80" fill="none" stroke="rgb(0,0,0)" />
  <path d="M 688 64 L 688 80" fill="none" stroke="rgb(0,0,0)" />
  <path d="M 712 64 L 712 80" fill="none" stroke="rgb(0,0,0)" />
  <path d="M 736 64 L 736 80" fill="none" stroke="rgb(0,0,0)" />
  <path d="M 760 64 L 760 80" fill="none" stroke="rgb(0,0,0)" />
  <path d="M 784 64 L 784 80" fill="none" stroke="rgb(0,0,0)" />
  <path d="M 808 64 L 808 80" fill="none" stroke="rgb(0,0,0)" />
  <path d="M 832 48 L 832 80" fill="none" stroke="rgb(0,0,0)" />
  <text fill="rgb(0,0,0)" font-family="sans-serif" font-size="11" font-style="normal" font-weight="normal" text-anchor="middle" textLength="15" x="832.5" y="42">32</text>
  <rect fill="rgb(255,255,255)" height="72" stroke="rgb(255,255,255)" width="192" x="64" y="80" />
  <path d="M 64 80 L 256 80" fill="none" stroke="rgb(0,0,0)" />
  <path d="M 256 80 L 256 152" fill="none" stroke="rgb(0,0,0)" />
  <path d="M 256 152 L 64 152" fill="none" stroke="rgb(0,0,0)" />
  <path d="M 64 152 L 64 80" fill="none" stroke="rgb(0,0,0)" />
  <text fill="rgb(0,0,0)" font-family="sans-serif" font-size="11" font-style="normal" font-weight="normal" text-anchor="middle" textLength="26" x="160.0" y="122">Type</text>
  <rect fill="rgb(255,255,255)" height="72" stroke="rgb(255,255,255)" width="192" x="256" y="80" />
  <path d="M 256 80 L 448 80" fill="none" stroke="rgb(0,0,0)" />
  <path d="M 448 80 L 448 152" fill="none" stroke="rgb(0,0,0)" />
  <path d="M 448 152 L 256 152" fill="none" stroke="rgb(0,0,0)" />
  <path d="M 256 152 L 256 80" fill="none" stroke="rgb(0,0,0)" />
  <text fill="rgb(0,0,0)" font-family="sans-serif" font-size="11" font-style="normal" font-weight="normal" text-anchor="middle" textLength="26" x="352.0" y="122">Code</text>
  <rect fill="rgb(255,255,255)" height="72" stroke="rgb(255,255,255)" width="384" x="448" y="80" />
  <path d="M 448 80 L 832 80" fill="none" stroke="rgb(0,0,0)" />
  <path d="M 832 80 L 832 152" fill="none" stroke="rgb(0,0,0)" />
  <path d="M 832 152 L 448 152" fill="none" stroke="rgb(0,0,0)" />
  <path d="M 448 152 L 448 80" fill="none" stroke="rgb(0,0,0)" />
  <text fill="rgb(0,0,0)" font-family="sans-serif" font-size="11" font-style="normal" font-weight="normal" text-anchor="middle" textLength="52" x="640.0" y="122">Checksum</text>
  <rect fill="rgb(255,255,255)" height="72" stroke="rgb(255,255,255)" width="384" x="64" y="152" />
  <path d="M 64 152 L 448 152" fill="none" stroke="rgb(0,0,0)" />
  <path d="M 448 152 L 448 224" fill="none" stroke="rgb(0,0,0)" />
  <path d="M 448 224 L 64 224" fill="none" stroke="rgb(0,0,0)" />
  <path d="M 64 224 L 64 152" fill="none" stroke="rgb(0,0,0)" />
  <text fill="rgb(0,0,0)" font-family="sans-serif" font-size="11" font-style="normal" font-weight="normal" text-anchor="middle" textLength="61" x="256.5" y="194">Identification</text>
  <rect fill="rgb(255,255,255)" height="72" stroke="rgb(255,255,255)" width="384" x="448" y="152" />
  <path d="M 448 152 L 832 152" fill="none" stroke="rgb(0,0,0)" />
  <path d="M 832 152 L 832 224" fill="none" stroke="rgb(0,0,0)" />
  <path d="M 832 224 L 448 224" fill="none" stroke="rgb(0,0,0)" />
  <path d="M 448 224 L 448 152" fill="none" stroke="rgb(0,0,0)" />
  <text fill="rgb(0,0,0)" font-family="sans-serif" font-size="11" font-style="normal" font-weight="normal" text-anchor="middle" textLength="93" x="640.5" y="194">Sequence Number</text>
  <rect fill="rgb(255,255,255)" height="144" stroke="rgb(255,255,255)" width="768" x="64" y="224" />
  <path d="M 64 224 L 832 224" fill="none" stroke="rgb(0,0,0)" />
  <path d="M 832 224 L 832 368" fill="none" stroke="rgb(0,0,0)" />
  <path d="M 832 368 L 64 368" fill="none" stroke="rgb(0,0,0)" />
  <path d="M 64 368 L 64 224" fill="none" stroke="rgb(0,0,0)" />
  <text fill="rgb(0,0,0)" font-family="sans-serif" font-size="11" font-style="normal" font-weight="normal" text-anchor="middle" textLength="24" x="448.0" y="302">Data</text>
</svg>
